<svg preserveAspectRatio="none" width="100%" height="100%" overflow="visible" style="display: block;" viewBox="0 0 35 35" fill="none" xmlns="http://www.w3.org/2000/svg">
<g id="icons8-tick-tack 1">
<path id="Vector" d="M28.7 2.8H6.3C4.3701 2.8 2.8 4.3701 2.8 6.3V28.7C2.8 30.6299 4.3701 32.2 6.3 32.2H28.7C30.6299 32.2 32.2 30.6299 32.2 28.7V6.3C32.2 4.3701 30.6299 2.8 28.7 2.8ZM25.9042 15.6261C25.7453 15.6408 25.5843 15.6506 25.4212 15.6506C23.5851 15.6506 21.9716 14.7063 21.0329 13.279C21.0329 17.0233 21.0329 21.2835 21.0329 21.3549C21.0329 24.6512 18.3603 27.3238 15.064 27.3238C11.7677 27.3238 9.0951 24.6512 9.0951 21.3549C9.0951 18.0586 11.7677 15.386 15.064 15.386C15.1886 15.386 15.3104 15.3972 15.4329 15.4049V18.3463C15.3104 18.3316 15.19 18.3092 15.064 18.3092C13.3812 18.3092 12.0176 19.6728 12.0176 21.3556C12.0176 23.0384 13.3812 24.402 15.064 24.402C16.7468 24.402 18.2329 23.0762 18.2329 21.3934C18.2329 21.3269 18.2623 7.6776 18.2623 7.6776H21.0735C21.3381 10.1913 23.3674 12.1751 25.9042 12.3571V15.6261Z" fill="var(--fill-0, white)"/>
</g>
</svg>
