<svg preserveAspectRatio="none" width="100%" height="100%" overflow="visible" style="display: block;" viewBox="0 0 35 35" fill="none" xmlns="http://www.w3.org/2000/svg">
<g id="icons8-instagram-500 1">
<path id="Vector" d="M11.2 2.1C6.181 2.1 2.1 6.181 2.1 11.2V23.8C2.1 28.819 6.181 32.9 11.2 32.9H23.8C28.819 32.9 32.9 28.819 32.9 23.8V11.2C32.9 6.181 28.819 2.1 23.8 2.1H11.2ZM25.9 7.7C26.67 7.7 27.3 8.33 27.3 9.1C27.3 9.87 26.67 10.5 25.9 10.5C25.13 10.5 24.5 9.87 24.5 9.1C24.5 8.33 25.13 7.7 25.9 7.7ZM17.5 9.8C21.749 9.8 25.2 13.251 25.2 17.5C25.2 21.749 21.749 25.2 17.5 25.2C13.251 25.2 9.8 21.749 9.8 17.5C9.8 13.251 13.251 9.8 17.5 9.8ZM17.5 11.2C14.028 11.2 11.2 14.028 11.2 17.5C11.2 20.972 14.028 23.8 17.5 23.8C20.972 23.8 23.8 20.972 23.8 17.5C23.8 14.028 20.972 11.2 17.5 11.2Z" fill="var(--fill-0, white)"/>
</g>
</svg>
