<svg preserveAspectRatio="none" width="100%" height="100%" overflow="visible" style="display: block;" viewBox="0 0 30 30" fill="none" xmlns="http://www.w3.org/2000/svg">
<g id="icons8-lupe-500 1">
<path id="Vector" d="M12.6 1.8C6.96094 1.8 2.4 6.36094 2.4 12C2.4 17.6391 6.96094 22.2 12.6 22.2C14.6133 22.2 16.4766 21.6094 18.0563 20.6062L25.425 27.975L27.975 25.425L20.7 18.1687C22.0078 16.4531 22.8 14.3273 22.8 12C22.8 6.36094 18.2391 1.8 12.6 1.8ZM12.6 4.2C16.9195 4.2 20.4 7.68047 20.4 12C20.4 16.3195 16.9195 19.8 12.6 19.8C8.28047 19.8 4.8 16.3195 4.8 12C4.8 7.68047 8.28047 4.2 12.6 4.2Z" fill="var(--fill-0, #060033)"/>
</g>
</svg>
