<svg preserveAspectRatio="none" width="100%" height="100%" overflow="visible" style="display: block;" viewBox="0 0 16 13.2292" fill="none" xmlns="http://www.w3.org/2000/svg">
<g id="map-pin 1" clip-path="url(#clip0_0_11)">
<path id="Vector" d="M13.3333 5.51219C13.3333 8.8195 8 12.678 8 12.678C8 12.678 2.66667 8.8195 2.66667 5.51219C2.66667 4.34265 3.22857 3.22101 4.22876 2.39402C5.22896 1.56703 6.58551 1.10244 8 1.10244C9.41449 1.10244 10.771 1.56703 11.7712 2.39402C12.7714 3.22101 13.3333 4.34265 13.3333 5.51219Z" stroke="var(--stroke-0, white)" stroke-width="1.5" stroke-linecap="round" stroke-linejoin="round"/>
<path id="Vector_2" d="M8 7.16584C9.10457 7.16584 10 6.42548 10 5.51219C10 4.5989 9.10457 3.85853 8 3.85853C6.89543 3.85853 6 4.5989 6 5.51219C6 6.42548 6.89543 7.16584 8 7.16584Z" stroke="var(--stroke-0, white)" stroke-width="1.5" stroke-linecap="round" stroke-linejoin="round"/>
</g>
<defs>
<clipPath id="clip0_0_11">
<rect width="16" height="13.2292" fill="white"/>
</clipPath>
</defs>
</svg>
