<svg preserveAspectRatio="none" width="100%" height="100%" overflow="visible" style="display: block;" viewBox="0 0 35 35" fill="none" xmlns="http://www.w3.org/2000/svg">
<g id="icons8-youtube-500 1">
<path id="Vector" d="M31.4289 10.15C31.15 8.61055 29.8211 7.48945 28.2789 7.13945C25.9711 6.65 21.7 6.3 17.0789 6.3C12.4605 6.3 8.12109 6.65 5.81055 7.13945C4.27109 7.48945 2.93945 8.53945 2.66055 10.15C2.37891 11.9 2.1 14.35 2.1 17.5C2.1 20.65 2.37891 23.1 2.72891 24.85C3.01055 26.3895 4.33945 27.5105 5.87891 27.8605C8.32891 28.35 12.5289 28.7 17.15 28.7C21.7711 28.7 25.9711 28.35 28.4211 27.8605C29.9605 27.5105 31.2895 26.4605 31.5711 24.85C31.85 23.1 32.2 20.5789 32.2711 17.5C32.1289 14.35 31.7789 11.9 31.4289 10.15ZM13.3 22.4V12.6L21.8395 17.5L13.3 22.4Z" fill="var(--fill-0, white)"/>
</g>
</svg>
